# Blender v2.81 (sub 16) OBJ File: 'coin.blend'
# www.blender.org
mtllib coin.mtl
o Cylinder
v 0.000000 -0.037356 -0.249037
v 0.000000 0.037356 -0.249037
v 0.048585 -0.037356 -0.244252
v 0.048585 0.037356 -0.244252
v 0.095302 -0.037356 -0.230080
v 0.095302 0.037356 -0.230080
v 0.138357 -0.037356 -0.207067
v 0.138357 0.037356 -0.207067
v 0.176096 -0.037356 -0.176096
v 0.176096 0.037356 -0.176096
v 0.207067 -0.037356 -0.138357
v 0.207067 0.037356 -0.138357
v 0.230080 -0.037356 -0.095302
v 0.230080 0.037356 -0.095302
v 0.244252 -0.037356 -0.048585
v 0.244252 0.037356 -0.048585
v 0.249037 -0.037356 -0.000000
v 0.249037 0.037356 -0.000000
v 0.244252 -0.037356 0.048585
v 0.244252 0.037356 0.048585
v 0.230080 -0.037356 0.095302
v 0.230080 0.037356 0.095302
v 0.207067 -0.037356 0.138357
v 0.207067 0.037356 0.138357
v 0.176096 -0.037356 0.176096
v 0.176096 0.037356 0.176096
v 0.138357 -0.037356 0.207067
v 0.138357 0.037356 0.207067
v 0.095302 -0.037356 0.230080
v 0.095302 0.037356 0.230080
v 0.048585 -0.037356 0.244252
v 0.048585 0.037356 0.244252
v -0.000000 -0.037356 0.249037
v -0.000000 0.037356 0.249037
v -0.048585 -0.037356 0.244252
v -0.048585 0.037356 0.244252
v -0.095302 -0.037356 0.230080
v -0.095302 0.037356 0.230080
v -0.138358 -0.037356 0.207066
v -0.138358 0.037356 0.207066
v -0.176096 -0.037356 0.176096
v -0.176096 0.037356 0.176096
v -0.207067 -0.037356 0.138357
v -0.207067 0.037356 0.138357
v -0.230080 -0.037356 0.095302
v -0.230080 0.037356 0.095302
v -0.244252 -0.037356 0.048584
v -0.244252 0.037356 0.048584
v -0.249037 -0.037356 -0.000000
v -0.249037 0.037356 -0.000000
v -0.244252 -0.037356 -0.048585
v -0.244252 0.037356 -0.048585
v -0.230080 -0.037356 -0.095303
v -0.230080 0.037356 -0.095303
v -0.207066 -0.037356 -0.138358
v -0.207066 0.037356 -0.138358
v -0.176095 -0.037356 -0.176096
v -0.176095 0.037356 -0.176096
v -0.138357 -0.037356 -0.207067
v -0.138357 0.037356 -0.207067
v -0.095302 -0.037356 -0.230080
v -0.095302 0.037356 -0.230080
v -0.048584 -0.037356 -0.244252
v -0.048584 0.037356 -0.244252
v 0.000000 -0.037356 -0.249037
v 0.000000 -0.037356 -0.249037
v 0.048585 -0.037356 -0.244252
v 0.048585 -0.037356 -0.244252
v 0.048585 0.037356 -0.244252
v 0.048585 0.037356 -0.244252
v 0.000000 0.037356 -0.249037
v 0.000000 0.037356 -0.249037
v 0.095302 -0.037356 -0.230080
v 0.095302 -0.037356 -0.230080
v 0.095302 0.037356 -0.230080
v 0.095302 0.037356 -0.230080
v 0.138357 -0.037356 -0.207067
v 0.138357 -0.037356 -0.207067
v 0.138357 0.037356 -0.207067
v 0.138357 0.037356 -0.207067
v 0.176096 -0.037356 -0.176096
v 0.176096 -0.037356 -0.176096
v 0.176096 0.037356 -0.176096
v 0.176096 0.037356 -0.176096
v 0.207067 -0.037356 -0.138357
v 0.207067 -0.037356 -0.138357
v 0.207067 0.037356 -0.138357
v 0.207067 0.037356 -0.138357
v 0.230080 -0.037356 -0.095302
v 0.230080 -0.037356 -0.095302
v 0.230080 0.037356 -0.095302
v 0.230080 0.037356 -0.095302
v 0.244252 -0.037356 -0.048585
v 0.244252 -0.037356 -0.048585
v 0.244252 0.037356 -0.048585
v 0.244252 0.037356 -0.048585
v 0.249037 -0.037356 -0.000000
v 0.249037 -0.037356 -0.000000
v 0.249037 0.037356 -0.000000
v 0.249037 0.037356 -0.000000
v 0.244252 -0.037356 0.048585
v 0.244252 -0.037356 0.048585
v 0.244252 0.037356 0.048585
v 0.244252 0.037356 0.048585
v 0.230080 -0.037356 0.095302
v 0.230080 -0.037356 0.095302
v 0.230080 0.037356 0.095302
v 0.230080 0.037356 0.095302
v 0.207067 -0.037356 0.138357
v 0.207067 -0.037356 0.138357
v 0.207067 0.037356 0.138357
v 0.207067 0.037356 0.138357
v 0.176096 -0.037356 0.176096
v 0.176096 -0.037356 0.176096
v 0.176096 0.037356 0.176096
v 0.176096 0.037356 0.176096
v 0.138357 -0.037356 0.207067
v 0.138357 -0.037356 0.207067
v 0.138357 0.037356 0.207067
v 0.138357 0.037356 0.207067
v 0.095302 -0.037356 0.230080
v 0.095302 -0.037356 0.230080
v 0.095302 0.037356 0.230080
v 0.095302 0.037356 0.230080
v 0.048585 -0.037356 0.244252
v 0.048585 -0.037356 0.244252
v 0.048585 0.037356 0.244252
v 0.048585 0.037356 0.244252
v -0.000000 -0.037356 0.249037
v -0.000000 -0.037356 0.249037
v -0.000000 0.037356 0.249037
v -0.000000 0.037356 0.249037
v -0.048585 -0.037356 0.244252
v -0.048585 -0.037356 0.244252
v -0.048585 0.037356 0.244252
v -0.048585 0.037356 0.244252
v -0.095302 -0.037356 0.230080
v -0.095302 -0.037356 0.230080
v -0.095302 0.037356 0.230080
v -0.095302 0.037356 0.230080
v -0.138358 -0.037356 0.207066
v -0.138358 -0.037356 0.207066
v -0.138358 0.037356 0.207066
v -0.138358 0.037356 0.207066
v -0.176096 -0.037356 0.176096
v -0.176096 -0.037356 0.176096
v -0.176096 0.037356 0.176096
v -0.176096 0.037356 0.176096
v -0.207067 -0.037356 0.138357
v -0.207067 -0.037356 0.138357
v -0.207067 0.037356 0.138357
v -0.207067 0.037356 0.138357
v -0.230080 -0.037356 0.095302
v -0.230080 -0.037356 0.095302
v -0.230080 0.037356 0.095302
v -0.230080 0.037356 0.095302
v -0.244252 -0.037356 0.048584
v -0.244252 -0.037356 0.048584
v -0.244252 0.037356 0.048584
v -0.244252 0.037356 0.048584
v -0.249037 -0.037356 -0.000000
v -0.249037 -0.037356 -0.000000
v -0.249037 0.037356 -0.000000
v -0.249037 0.037356 -0.000000
v -0.244252 -0.037356 -0.048585
v -0.244252 -0.037356 -0.048585
v -0.244252 0.037356 -0.048585
v -0.244252 0.037356 -0.048585
v -0.230080 -0.037356 -0.095303
v -0.230080 -0.037356 -0.095303
v -0.230080 0.037356 -0.095303
v -0.230080 0.037356 -0.095303
v -0.207066 -0.037356 -0.138358
v -0.207066 -0.037356 -0.138358
v -0.207066 0.037356 -0.138358
v -0.207066 0.037356 -0.138358
v -0.176095 -0.037356 -0.176096
v -0.176095 -0.037356 -0.176096
v -0.176095 0.037356 -0.176096
v -0.176095 0.037356 -0.176096
v -0.138357 -0.037356 -0.207067
v -0.138357 -0.037356 -0.207067
v -0.138357 0.037356 -0.207067
v -0.138357 0.037356 -0.207067
v -0.095302 -0.037356 -0.230080
v -0.095302 -0.037356 -0.230080
v -0.095302 0.037356 -0.230080
v -0.095302 0.037356 -0.230080
v -0.048584 -0.037356 -0.244252
v -0.048584 -0.037356 -0.244252
v -0.048584 0.037356 -0.244252
v -0.048584 0.037356 -0.244252
vt 0.245725 0.575000
vt 0.294054 0.425000
vt 0.245725 0.425000
vt 0.294054 0.575000
vt 0.340526 0.425000
vt 0.294054 0.425000
vt 0.340526 0.575000
vt 0.383355 0.425000
vt 0.340526 0.425000
vt 0.383355 0.575000
vt 0.420895 0.425000
vt 0.383355 0.425000
vt 0.420895 0.575000
vt 0.383355 0.425000
vt 0.420895 0.425000
vt 0.383355 0.575000
vt 0.340526 0.425000
vt 0.383355 0.425000
vt 0.340526 0.575000
vt 0.294054 0.425000
vt 0.340526 0.425000
vt 0.294054 0.575000
vt 0.245725 0.425000
vt 0.294054 0.425000
vt 0.245725 0.575000
vt 0.197396 0.425000
vt 0.245725 0.425000
vt 0.197396 0.575000
vt 0.150924 0.425000
vt 0.197396 0.425000
vt 0.150924 0.575000
vt 0.108095 0.425000
vt 0.150924 0.425000
vt 0.108095 0.575000
vt 0.070555 0.425000
vt 0.108095 0.425000
vt 0.420895 0.575000
vt 0.383355 0.425000
vt 0.420895 0.425000
vt 0.383355 0.575000
vt 0.340526 0.425000
vt 0.383355 0.425000
vt 0.340526 0.575000
vt 0.294054 0.425000
vt 0.340526 0.425000
vt 0.294054 0.575000
vt 0.245725 0.425000
vt 0.294054 0.425000
vt 0.245725 0.575000
vt 0.197396 0.425000
vt 0.245725 0.425000
vt 0.197396 0.575000
vt 0.150924 0.425000
vt 0.197396 0.425000
vt 0.150924 0.575000
vt 0.108095 0.425000
vt 0.150924 0.425000
vt 0.108095 0.575000
vt 0.070555 0.425000
vt 0.108095 0.425000
vt 0.070555 0.575000
vt 0.108095 0.425000
vt 0.070555 0.425000
vt 0.108095 0.575000
vt 0.150924 0.425000
vt 0.108095 0.425000
vt 0.150924 0.575000
vt 0.197396 0.425000
vt 0.150924 0.425000
vt 0.197396 0.575000
vt 0.245725 0.425000
vt 0.197396 0.425000
vt 0.245725 0.575000
vt 0.294054 0.425000
vt 0.245725 0.425000
vt 0.294054 0.575000
vt 0.340526 0.425000
vt 0.294054 0.425000
vt 0.340526 0.575000
vt 0.383355 0.425000
vt 0.340526 0.425000
vt 0.383355 0.575000
vt 0.420895 0.425000
vt 0.383355 0.425000
vt 0.070556 0.575000
vt 0.108095 0.425000
vt 0.070556 0.425000
vt 0.108095 0.575000
vt 0.150924 0.425000
vt 0.108095 0.425000
vt 0.150924 0.038060
vt 0.474595 0.308658
vt 0.340526 0.961940
vt 0.197396 0.575000
vt 0.245725 0.425000
vt 0.197396 0.425000
vt 0.150924 0.575000
vt 0.197396 0.425000
vt 0.150924 0.425000
vt 0.488692 0.597545
vt 0.294054 0.009607
vt 0.002758 0.402455
vt 0.294054 0.575000
vt 0.340526 0.575000
vt 0.383355 0.575000
vt 0.420895 0.575000
vt 0.383355 0.575000
vt 0.340526 0.575000
vt 0.294054 0.575000
vt 0.245725 0.575000
vt 0.197396 0.575000
vt 0.150924 0.575000
vt 0.108095 0.575000
vt 0.070555 0.575000
vt 0.383355 0.575000
vt 0.340526 0.575000
vt 0.294054 0.575000
vt 0.245725 0.575000
vt 0.197396 0.575000
vt 0.150924 0.575000
vt 0.108095 0.575000
vt 0.070555 0.575000
vt 0.108095 0.575000
vt 0.150924 0.575000
vt 0.197396 0.575000
vt 0.245725 0.575000
vt 0.294054 0.575000
vt 0.340526 0.575000
vt 0.383355 0.575000
vt 0.420895 0.575000
vt 0.108095 0.575000
vt 0.150924 0.575000
vt 0.294054 0.990392
vt 0.245725 1.000000
vt 0.197396 0.990393
vt 0.150924 0.961940
vt 0.108095 0.915735
vt 0.070556 0.853554
vt 0.039748 0.777785
vt 0.016855 0.691342
vt 0.002758 0.597546
vt -0.002002 0.500000
vt 0.002758 0.402455
vt 0.016855 0.308658
vt 0.039747 0.222215
vt 0.070555 0.146447
vt 0.108095 0.084265
vt 0.197396 0.009607
vt 0.245725 -0.000000
vt 0.294054 0.009607
vt 0.340526 0.038060
vt 0.383355 0.084265
vt 0.420895 0.146446
vt 0.451703 0.222215
vt 0.488692 0.402455
vt 0.493452 0.500000
vt 0.488692 0.597545
vt 0.474595 0.691342
vt 0.451703 0.777785
vt 0.420895 0.853553
vt 0.383355 0.915735
vt 0.245725 0.575000
vt 0.197396 0.575000
vt 0.197396 0.990393
vt 0.245725 1.000000
vt 0.294054 0.990392
vt 0.340526 0.961940
vt 0.383355 0.915735
vt 0.420895 0.853553
vt 0.451703 0.777785
vt 0.474595 0.691342
vt 0.493452 0.500000
vt 0.488692 0.402455
vt 0.474595 0.308658
vt 0.451703 0.222215
vt 0.420895 0.146446
vt 0.383355 0.084265
vt 0.340526 0.038060
vt 0.245725 -0.000000
vt 0.197396 0.009607
vt 0.150924 0.038060
vt 0.108095 0.084265
vt 0.070555 0.146447
vt 0.039747 0.222215
vt 0.016855 0.308658
vt -0.002002 0.500000
vt 0.002758 0.597546
vt 0.016855 0.691342
vt 0.039748 0.777785
vt 0.070556 0.853554
vt 0.108095 0.915735
vt 0.150924 0.961940
vn 0.0980 0.0000 -0.9952
vn 0.2903 0.0000 -0.9569
vn 0.4714 0.0000 -0.8819
vn 0.6344 0.0000 -0.7730
vn 0.7730 0.0000 -0.6344
vn 0.8819 0.0000 -0.4714
vn 0.9569 0.0000 -0.2903
vn 0.9952 0.0000 -0.0980
vn 0.9952 0.0000 0.0980
vn 0.9569 0.0000 0.2903
vn 0.8819 0.0000 0.4714
vn 0.7730 0.0000 0.6344
vn 0.6344 0.0000 0.7730
vn 0.4714 0.0000 0.8819
vn 0.2903 0.0000 0.9569
vn 0.0980 0.0000 0.9952
vn -0.0980 0.0000 0.9952
vn -0.2903 0.0000 0.9569
vn -0.4714 0.0000 0.8819
vn -0.6344 0.0000 0.7730
vn -0.7730 0.0000 0.6344
vn -0.8819 0.0000 0.4714
vn -0.9569 0.0000 0.2903
vn -0.9952 0.0000 0.0980
vn -0.9952 0.0000 -0.0980
vn -0.9569 0.0000 -0.2903
vn -0.8819 0.0000 -0.4714
vn -0.7730 0.0000 -0.6344
vn -0.6344 0.0000 -0.7730
vn -0.4714 0.0000 -0.8819
vn 0.0000 1.0000 0.0000
vn -0.0980 0.0000 -0.9952
vn -0.2903 0.0000 -0.9569
vn 0.0000 -1.0000 0.0000
usemtl Material
s off
f 71/1/1 67/2/1 65/3/1
f 70/4/2 73/5/2 68/6/2
f 76/7/3 77/8/3 74/9/3
f 80/10/4 81/11/4 78/12/4
f 84/13/5 85/14/5 82/15/5
f 88/16/6 89/17/6 86/18/6
f 92/19/7 93/20/7 90/21/7
f 96/22/8 97/23/8 94/24/8
f 100/25/9 101/26/9 98/27/9
f 104/28/10 105/29/10 102/30/10
f 108/31/11 109/32/11 106/33/11
f 112/34/12 113/35/12 110/36/12
f 116/37/13 117/38/13 114/39/13
f 120/40/14 121/41/14 118/42/14
f 124/43/15 125/44/15 122/45/15
f 128/46/16 129/47/16 126/48/16
f 132/49/17 133/50/17 130/51/17
f 136/52/18 137/53/18 134/54/18
f 140/55/19 141/56/19 138/57/19
f 144/58/20 145/59/20 142/60/20
f 148/61/21 149/62/21 146/63/21
f 152/64/22 153/65/22 150/66/22
f 156/67/23 157/68/23 154/69/23
f 160/70/24 161/71/24 158/72/24
f 164/73/25 165/74/25 162/75/25
f 168/76/26 169/77/26 166/78/26
f 172/79/27 173/80/27 170/81/27
f 176/82/28 177/83/28 174/84/28
f 180/85/29 181/86/29 178/87/29
f 184/88/30 185/89/30 182/90/30
f 38/91/31 22/92/31 6/93/31
f 192/94/32 66/95/32 190/96/32
f 62/97/33 189/98/33 186/99/33
f 15/100/34 31/101/34 47/102/34
f 71/1/1 69/103/1 67/2/1
f 70/4/2 75/104/2 73/5/2
f 76/7/3 79/105/3 77/8/3
f 80/10/4 83/106/4 81/11/4
f 84/13/5 87/107/5 85/14/5
f 88/16/6 91/108/6 89/17/6
f 92/19/7 95/109/7 93/20/7
f 96/22/8 99/110/8 97/23/8
f 100/25/9 103/111/9 101/26/9
f 104/28/10 107/112/10 105/29/10
f 108/31/11 111/113/11 109/32/11
f 112/34/12 115/114/12 113/35/12
f 116/37/13 119/115/13 117/38/13
f 120/40/14 123/116/14 121/41/14
f 124/43/15 127/117/15 125/44/15
f 128/46/16 131/118/16 129/47/16
f 132/49/17 135/119/17 133/50/17
f 136/52/18 139/120/18 137/53/18
f 140/55/19 143/121/19 141/56/19
f 144/58/20 147/122/20 145/59/20
f 148/61/21 151/123/21 149/62/21
f 152/64/22 155/124/22 153/65/22
f 156/67/23 159/125/23 157/68/23
f 160/70/24 163/126/24 161/71/24
f 164/73/25 167/127/25 165/74/25
f 168/76/26 171/128/26 169/77/26
f 172/79/27 175/129/27 173/80/27
f 176/82/28 179/130/28 177/83/28
f 180/85/29 183/131/29 181/86/29
f 184/88/30 187/132/30 185/89/30
f 6/93/31 4/133/31 72/134/31
f 72/134/31 191/135/31 6/93/31
f 191/135/31 188/136/31 6/93/31
f 188/136/31 60/137/31 58/138/31
f 58/138/31 56/139/31 54/140/31
f 54/140/31 52/141/31 50/142/31
f 50/142/31 48/143/31 46/144/31
f 46/144/31 44/145/31 42/146/31
f 42/146/31 40/147/31 38/91/31
f 38/91/31 36/148/31 34/149/31
f 34/149/31 32/150/31 30/151/31
f 30/151/31 28/152/31 26/153/31
f 26/153/31 24/154/31 22/92/31
f 22/92/31 20/155/31 18/156/31
f 18/156/31 16/157/31 14/158/31
f 14/158/31 12/159/31 10/160/31
f 10/160/31 8/161/31 14/158/31
f 8/161/31 6/93/31 14/158/31
f 188/136/31 58/138/31 54/140/31
f 54/140/31 50/142/31 38/91/31
f 50/142/31 46/144/31 38/91/31
f 46/144/31 42/146/31 38/91/31
f 38/91/31 34/149/31 22/92/31
f 34/149/31 30/151/31 22/92/31
f 30/151/31 26/153/31 22/92/31
f 22/92/31 18/156/31 14/158/31
f 6/93/31 188/136/31 54/140/31
f 22/92/31 14/158/31 6/93/31
f 6/93/31 54/140/31 38/91/31
f 192/94/32 2/162/32 66/95/32
f 62/97/33 64/163/33 189/98/33
f 63/164/34 1/165/34 3/166/34
f 3/166/34 5/167/34 7/168/34
f 7/168/34 9/169/34 11/170/34
f 11/170/34 13/171/34 7/168/34
f 13/171/34 15/100/34 7/168/34
f 15/100/34 17/172/34 19/173/34
f 19/173/34 21/174/34 15/100/34
f 21/174/34 23/175/34 15/100/34
f 23/175/34 25/176/34 27/177/34
f 27/177/34 29/178/34 31/101/34
f 31/101/34 33/179/34 35/180/34
f 35/180/34 37/181/34 39/182/34
f 39/182/34 41/183/34 43/184/34
f 43/184/34 45/185/34 47/102/34
f 47/102/34 49/186/34 51/187/34
f 51/187/34 53/188/34 55/189/34
f 55/189/34 57/190/34 63/164/34
f 57/190/34 59/191/34 63/164/34
f 59/191/34 61/192/34 63/164/34
f 63/164/34 3/166/34 15/100/34
f 3/166/34 7/168/34 15/100/34
f 23/175/34 27/177/34 31/101/34
f 31/101/34 35/180/34 47/102/34
f 35/180/34 39/182/34 47/102/34
f 39/182/34 43/184/34 47/102/34
f 47/102/34 51/187/34 63/164/34
f 51/187/34 55/189/34 63/164/34
f 15/100/34 23/175/34 31/101/34
f 63/164/34 15/100/34 47/102/34
