# Blender v2.81 (sub 16) OBJ File: ''
# www.blender.org
o Pillar.010_Cube.011
v -17.603432 49.243359 -80.804909
v 61.475304 49.243351 -55.069489
v -23.475304 49.243359 -62.762054
v 55.603432 49.243355 -37.026634
v -17.603432 54.756645 -80.804909
v 61.475304 54.756641 -55.069489
v -23.475304 54.756649 -62.762054
v 55.603432 54.756641 -37.026634
v -23.475304 49.243359 -62.762054
v -23.475304 49.243359 -62.762054
v -17.603432 49.243359 -80.804909
v -17.603432 49.243359 -80.804909
v 61.475304 49.243351 -55.069489
v 61.475304 49.243351 -55.069489
v 55.603432 49.243355 -37.026634
v 55.603432 49.243355 -37.026634
v -23.475304 54.756649 -62.762054
v -23.475304 54.756649 -62.762054
v 55.603432 54.756641 -37.026634
v 55.603432 54.756641 -37.026634
v -17.603432 54.756645 -80.804909
v -17.603432 54.756645 -80.804909
v 61.475304 54.756641 -55.069489
v 61.475304 54.756641 -55.069489
vt 0.625000 0.000000
vt 0.375000 0.250000
vt 0.375000 0.000000
vt 0.625000 0.250000
vt 0.375000 0.500000
vt 0.375000 0.250000
vt 0.625000 0.500000
vt 0.375000 0.750000
vt 0.375000 0.500000
vt 0.625000 0.750000
vt 0.375000 1.000000
vt 0.375000 0.750000
vt 0.375000 0.500000
vt 0.125000 0.750000
vt 0.125000 0.500000
vt 0.625000 0.500000
vt 0.875000 0.750000
vt 0.625000 0.750000
vt 0.625000 0.250000
vt 0.625000 0.500000
vt 0.625000 0.750000
vt 0.625000 1.000000
vt 0.375000 0.750000
vt 0.875000 0.500000
vn -0.0000 -1.0000 -0.0000
vn -0.3095 0.0000 0.9509
vn 0.0000 1.0000 -0.0000
vn 0.3095 0.0000 -0.9509
vn -0.9509 0.0000 -0.3095
vn 0.9509 0.0000 0.3095
s off
f 13/1/1 9/2/1 11/3/1
f 16/4/2 17/5/2 10/6/2
f 20/7/3 21/8/3 18/9/3
f 24/10/4 12/11/4 22/12/4
f 7/13/5 1/14/5 3/15/5
f 8/16/6 2/17/6 6/18/6
f 13/1/1 15/19/1 9/2/1
f 16/4/2 19/20/2 17/5/2
f 20/7/3 23/21/3 21/8/3
f 24/10/4 14/22/4 12/11/4
f 7/13/5 5/23/5 1/14/5
f 8/16/6 4/24/6 2/17/6
