# Blender v2.81 (sub 16) OBJ File: ''
# www.blender.org
o Pillar.013_Cube.014
v 13.511029 -0.468277 -35.196796
v 20.171856 79.859116 -55.663887
v 31.553883 -0.468281 -29.324926
v 38.214706 79.859116 -49.792015
v 11.862998 0.958668 -30.132790
v 18.523823 81.286057 -50.599876
v 29.905849 0.958664 -24.260920
v 36.566677 81.286057 -44.728008
v 31.553883 -0.468281 -29.324926
v 31.553883 -0.468281 -29.324926
v 13.511029 -0.468277 -35.196796
v 13.511029 -0.468277 -35.196796
v 20.171856 79.859116 -55.663887
v 20.171856 79.859116 -55.663887
v 38.214706 79.859116 -49.792015
v 38.214706 79.859116 -49.792015
v 29.905849 0.958664 -24.260920
v 29.905849 0.958664 -24.260920
v 36.566677 81.286057 -44.728008
v 36.566677 81.286057 -44.728008
v 11.862998 0.958668 -30.132790
v 11.862998 0.958668 -30.132790
v 18.523823 81.286057 -50.599876
v 18.523823 81.286057 -50.599876
vt 0.625000 0.000000
vt 0.375000 0.250000
vt 0.375000 0.000000
vt 0.375000 0.250000
vt 0.625000 0.500000
vt 0.375000 0.500000
vt 0.625000 0.500000
vt 0.375000 0.750000
vt 0.375000 0.500000
vt 0.375000 0.750000
vt 0.625000 1.000000
vt 0.375000 1.000000
vt 0.375000 0.500000
vt 0.125000 0.750000
vt 0.125000 0.500000
vt 0.875000 0.500000
vt 0.625000 0.750000
vt 0.625000 0.500000
vt 0.625000 0.250000
vt 0.625000 0.250000
vt 0.625000 0.750000
vt 0.625000 0.750000
vt 0.375000 0.750000
vt 0.875000 0.750000
vn 0.2989 -0.2588 -0.9185
vn 0.9509 0.0000 0.3095
vn -0.2989 0.2588 0.9185
vn -0.9509 0.0000 -0.3095
vn -0.0801 -0.9659 0.2461
vn 0.0801 0.9659 -0.2461
s off
f 13/1/1 9/2/1 11/3/1
f 10/4/2 19/5/2 17/6/2
f 20/7/3 21/8/3 18/9/3
f 22/10/4 14/11/4 12/12/4
f 7/13/5 1/14/5 3/15/5
f 4/16/6 6/17/6 8/18/6
f 13/1/1 15/19/1 9/2/1
f 10/4/2 16/20/2 19/5/2
f 20/7/3 23/21/3 21/8/3
f 22/10/4 24/22/4 14/11/4
f 7/13/5 5/23/5 1/14/5
f 4/16/6 2/24/6 6/17/6
