# Blender v2.81 (sub 16) OBJ File: ''
# www.blender.org
o Pillar.012_Cube.013
v 76.895309 49.243355 -6.015438
v 40.123238 49.243355 68.573929
v 59.876762 49.243355 -14.405468
v 23.104692 49.243359 60.183895
v 76.895309 54.756641 -6.015438
v 40.123238 54.756645 68.573929
v 59.876762 54.756645 -14.405468
v 23.104692 54.756645 60.183895
v 59.876762 49.243355 -14.405468
v 59.876762 49.243355 -14.405468
v 76.895309 49.243355 -6.015438
v 76.895309 49.243355 -6.015438
v 40.123238 49.243355 68.573929
v 40.123238 49.243355 68.573929
v 23.104692 49.243359 60.183895
v 23.104692 49.243359 60.183895
v 59.876762 54.756645 -14.405468
v 59.876762 54.756645 -14.405468
v 23.104692 54.756645 60.183895
v 23.104692 54.756645 60.183895
v 76.895309 54.756641 -6.015438
v 76.895309 54.756641 -6.015438
v 40.123238 54.756645 68.573929
v 40.123238 54.756645 68.573929
vt 0.625000 0.000000
vt 0.375000 0.250000
vt 0.375000 0.000000
vt 0.625000 0.250000
vt 0.375000 0.500000
vt 0.375000 0.250000
vt 0.625000 0.500000
vt 0.375000 0.750000
vt 0.375000 0.500000
vt 0.625000 0.750000
vt 0.375000 1.000000
vt 0.375000 0.750000
vt 0.125000 0.500000
vt 0.375000 0.750000
vt 0.125000 0.750000
vt 0.875000 0.500000
vt 0.625000 0.750000
vt 0.625000 0.500000
vt 0.625000 0.250000
vt 0.625000 0.500000
vt 0.625000 0.750000
vt 0.625000 1.000000
vt 0.375000 0.500000
vt 0.875000 0.750000
vn 0.0000 -1.0000 -0.0000
vn -0.8969 0.0000 -0.4422
vn 0.0000 1.0000 0.0000
vn 0.8969 0.0000 0.4422
vn 0.4422 0.0000 -0.8969
vn -0.4422 0.0000 0.8969
s off
f 13/1/1 9/2/1 11/3/1
f 16/4/2 17/5/2 10/6/2
f 20/7/3 21/8/3 18/9/3
f 24/10/4 12/11/4 22/12/4
f 3/13/5 5/14/5 1/15/5
f 4/16/6 6/17/6 8/18/6
f 13/1/1 15/19/1 9/2/1
f 16/4/2 19/20/2 17/5/2
f 20/7/3 23/21/3 21/8/3
f 24/10/4 14/22/4 12/11/4
f 3/13/5 7/23/5 5/14/5
f 4/16/6 2/24/6 6/17/6
