# Blender v2.81 (sub 16) OBJ File: ''
# www.blender.org
o Pillar.021_Cube.023
v -175.891449 0.000000 49.145725
v -175.891449 50.000000 49.145725
v -152.229721 0.000000 93.192551
v -152.229721 50.000000 93.192551
v -219.938278 0.000000 72.807449
v -219.938278 50.000000 72.807449
v -196.276550 0.000000 116.854279
v -196.276550 50.000000 116.854279
v -152.229721 0.000000 93.192551
v -152.229721 0.000000 93.192551
v -175.891449 0.000000 49.145725
v -175.891449 0.000000 49.145725
v -175.891449 50.000000 49.145725
v -175.891449 50.000000 49.145725
v -152.229721 50.000000 93.192551
v -152.229721 50.000000 93.192551
v -196.276550 0.000000 116.854279
v -196.276550 0.000000 116.854279
v -196.276550 50.000000 116.854279
v -196.276550 50.000000 116.854279
v -219.938278 0.000000 72.807449
v -219.938278 0.000000 72.807449
v -219.938278 50.000000 72.807449
v -219.938278 50.000000 72.807449
vt 0.625000 0.000000
vt 0.375000 0.250000
vt 0.375000 0.000000
vt 0.625000 0.250000
vt 0.375000 0.500000
vt 0.375000 0.250000
vt 0.625000 0.500000
vt 0.375000 0.750000
vt 0.375000 0.500000
vt 0.625000 0.750000
vt 0.375000 1.000000
vt 0.375000 0.750000
vt 0.375000 0.500000
vt 0.125000 0.750000
vt 0.125000 0.500000
vt 0.875000 0.500000
vt 0.625000 0.750000
vt 0.625000 0.500000
vt 0.625000 0.250000
vt 0.625000 0.500000
vt 0.625000 0.750000
vt 0.625000 1.000000
vt 0.375000 0.750000
vt 0.875000 0.750000
vn 0.8809 0.0000 -0.4732
vn 0.4732 0.0000 0.8809
vn -0.8809 0.0000 0.4732
vn -0.4732 0.0000 -0.8809
vn 0.0000 -1.0000 0.0000
vn 0.0000 1.0000 -0.0000
s off
f 13/1/1 9/2/1 11/3/1
f 16/4/2 17/5/2 10/6/2
f 20/7/3 21/8/3 18/9/3
f 24/10/4 12/11/4 22/12/4
f 7/13/5 1/14/5 3/15/5
f 4/16/6 6/17/6 8/18/6
f 13/1/1 15/19/1 9/2/1
f 16/4/2 19/20/2 17/5/2
f 20/7/3 23/21/3 21/8/3
f 24/10/4 14/22/4 12/11/4
f 7/13/5 5/23/5 1/14/5
f 4/16/6 2/24/6 6/17/6
